<?xml version="1.0"?>
<svg xmlns="http://www.w3.org/2000/svg" id="Solid" viewBox="0 0 512 512" width="512" height="512"><path d="M450.666,163.167c-13.75-6.373-26.473-5.311-37.866,3.233-8.359,6.269-12.862,12.833-13.387,19.512-.719,9.143,6.214,16.4,6.284,16.472a7.977,7.977,0,0,1-4.128,13.461c-.084.017-12.29,2.682-16.071,11.35-2.923,6.7.222,15.382,3.95,22.217,8.615,2.691,38.09,9.935,61.752-7.812,6.9-5.177,10.489-10.828,10.967-17.278,1-13.518-11.712-26.551-11.841-26.682a8.043,8.043,0,0,1-2.228-6.885A201.409,201.409,0,0,0,450.666,163.167ZM424,200a8,8,0,1,1,8-8A8,8,0,0,1,424,200Z"/><path d="M317.668,157.674a24,24,0,0,1,32.006-32.007,24.049,24.049,0,0,0-4.7-6.638h0a24,24,0,1,0-27.3,38.645Z"/><circle cx="339.313" cy="147.313" r="8"/><path d="M119.793,336.956a138.265,138.265,0,0,0,48.82,15.067,8,8,0,0,1,6.333,11.946l-32,56c-15.336,26.838-14.007,39.885-11.849,45.275A12.244,12.244,0,0,0,137.372,472H264v-8a8.009,8.009,0,0,0-8-8H184a8,8,0,0,1-5.979-13.315l49.61-55.81a23.9,23.9,0,0,0,3.522-26.679l-30.308-60.618a8,8,0,0,1,9.685-11.167c44.769,14.923,90.492.147,90.949,0A8,8,0,0,1,312,296v60.847L417.108,469.461A8.007,8.007,0,0,0,422.95,472H480v-3.93a8.051,8.051,0,0,0-5.808-7.7L429.8,447.692a7.985,7.985,0,0,1-3.722-2.311l-80-88A8,8,0,0,1,344,352V296a8,8,0,0,1,1.753-5l28.654-35.818c-6.684-13.06-7.879-24.657-3.513-34.525,3.715-8.4,10.716-13.548,16.733-16.585a36.306,36.306,0,0,1-4.184-19.169c.822-11.556,7.469-22.089,19.757-31.305,13.94-10.454,30.121-13.11,46.594-7.909-2.369-18.486-9.432-31.605-21.1-39.066-21.75-13.91-55.174-6.783-74.413-.764.682.6,1.353,1.208,2,1.855A40,40,0,1,1,288,136c-85.671,0-138.419,8.311-171.031,26.946C85.869,180.717,72,209.417,72,256,72,292.643,88.08,319.88,119.793,336.956Z"/><path d="M68.155,192.054a95.223,95.223,0,0,1,8.39-14.261l-27.4-45.677A8.009,8.009,0,0,1,48,128,40.045,40.045,0,0,1,88,88H232.32a56.065,56.065,0,0,0,36.455-13.485l24.9-21.348a8,8,0,0,0,.45-11.73l-1.449-1.449A7.955,7.955,0,0,0,281.9,39.5L262.922,55.315A72.145,72.145,0,0,1,216.83,72H88a56.063,56.063,0,0,0-56,56v5.837L67.191,194.17C67.509,193.462,67.823,192.75,68.155,192.054Z"/></svg>
