<svg height="512pt" viewBox="-37 0 511 512" width="512pt" xmlns="http://www.w3.org/2000/svg"><path d="m219.074219 468.625h-169.890625c-26.84375 0-48.683594-21.839844-48.683594-48.683594s21.839844-48.679687 48.683594-48.679687h339.75c9.804687 0 17.777344-7.976563 17.777344-17.777344v-27.019531c0-8.535156 6.921874-15.453125 15.453124-15.453125 8.535157 0 15.453126 6.917969 15.453126 15.453125v27.019531c0 26.84375-21.839844 48.679687-48.679688 48.679687h-339.753906c-9.804688 0-17.777344 7.976563-17.777344 17.777344 0 9.804688 7.972656 17.777344 17.777344 17.777344h169.890625c8.535156 0 15.453125 6.917969 15.453125 15.453125s-6.917969 15.453125-15.453125 15.453125zm0 0" fill="#774839"/><path d="m54.640625 512c0-90.804688 73.613281-164.417969 164.417969-164.417969 90.804687 0 164.417968 73.613281 164.417968 164.417969zm0 0" fill="#f46262"/><path d="m219.058594 347.582031c-90.804688 0-164.417969 73.613281-164.417969 164.417969h164.417969zm0 0" fill="#d65b5b"/><path d="m219.058594 347.582031h-60.964844v41.820313c0 2.609375 1.480469 4.988281 3.820312 6.144531 8.050782 3.957031 28.394532 12.285156 57.144532 12.285156 28.746094 0 49.089844-8.328125 57.140625-12.285156 2.339843-1.15625 3.820312-3.535156 3.820312-6.144531v-41.820313zm0 0" fill="#ffde55"/><path d="m192.402344 453.171875c0 11.664063-9.453125 21.117187-21.117188 21.117187-11.664062 0-21.117187-9.453124-21.117187-21.117187s9.453125-21.117187 21.117187-21.117187c11.664063 0 21.117188 9.453124 21.117188 21.117187zm0 0" fill="#ffcd00"/><path d="m287.949219 453.171875c0 11.664063-9.453125 21.117187-21.117188 21.117187-11.664062 0-21.117187-9.453124-21.117187-21.117187s9.453125-21.117187 21.117187-21.117187c11.664063 0 21.117188 9.453124 21.117188 21.117187zm0 0" fill="#ffde55"/><path d="m422.164062 208.03125c0 19.320312-15.660156 34.980469-34.976562 34.980469-19.320312 0-34.980469-15.660157-34.980469-34.980469 0-19.316406 15.660157-34.976562 34.980469-34.976562 19.316406 0 34.976562 15.660156 34.976562 34.976562zm0 0" fill="#ffcfc2"/><path d="m85.90625 208.03125c0 19.320312-15.660156 34.980469-34.976562 34.980469-19.316407 0-34.976563-15.660157-34.976563-34.980469 0-19.316406 15.660156-34.976562 34.976563-34.976562 19.316406 0 34.976562 15.660156 34.976562 34.976562zm0 0" fill="#ffcfc2"/><path d="m219.058594 347.582031h-60.964844v41.820313c0 2.609375 1.480469 4.988281 3.820312 6.144531 8.050782 3.957031 28.394532 12.285156 57.144532 12.285156v-17.714843c21.300781 0 41.800781-3.496094 60.964844-9.929688v-32.609375h-60.964844zm0 0" fill="#ffcd00"/><path d="m395.507812 198.214844c0 97.449218-79 176.449218-176.449218 176.449218-97.453125 0-176.453125-79-176.453125-176.449218 0-97.453125 79-176.453125 176.453125-176.453125 97.449218 0 176.449218 79 176.449218 176.453125zm0 0" fill="#b2785b"/><path d="m363.84375 97.351562c-31.886719-45.691406-84.839844-75.589843-144.785156-75.589843-97.453125 0-176.453125 79-176.453125 176.453125 0 97.449218 79 176.449218 176.453125 176.449218 5.207031 0 10.359375-.238281 15.453125-.679687-90.214844-7.832031-161-83.527344-161-175.769531 0-37.507813 11.703125-72.277344 31.65625-100.863282zm0 0" fill="#935b45"/><path d="m352.550781 66.386719h-266.953125l11.082032-63.488281c.292968-1.675782 1.746093-2.898438 3.449218-2.898438h237.890625c1.699219 0 3.15625 1.222656 3.449219 2.898438zm0 0" fill="#f46262"/><path d="m141.335938 0h-41.207032c-1.699218 0-3.15625 1.222656-3.449218 2.898438l-11.082032 63.488281h41.207032l11.082031-63.488281c.292969-1.675782 1.75-2.898438 3.449219-2.898438zm0 0" fill="#d65b5b"/><path d="m350.132812 52.523438h-262.117187l-4.410156 25.273437c-.375 2.140625 1.277343 4.101563 3.449219 4.101563h264.039062c2.171875 0 3.820312-1.960938 3.449219-4.101563zm0 0" fill="#ffde55"/><path d="m124.8125 77.796875 4.410156-25.273437h-41.207031l-4.410156 25.273437c-.375 2.140625 1.277343 4.101563 3.449219 4.101563h41.207031c-2.171875 0-3.824219-1.960938-3.449219-4.101563zm0 0" fill="#ffcd00"/><path d="m315.46875 256c0-7.8125 3.140625-14.894531 8.226562-20.042969 13.613282-13.78125 16.488282-34.914062 8.121094-52.382812-.238281-.5-.480468-.992188-.722656-1.488281-12.945312-26.121094-46.792969-33.144532-69.804688-15.246094-11.660156 9.066406-26.3125 14.46875-42.230468 14.46875-15.917969 0-30.570313-5.402344-42.230469-14.46875-23.011719-17.898438-56.863281-10.875-69.804687 15.246094-.246094.492187-.488282.988281-.722657 1.484374-8.371093 17.46875-5.496093 38.605469 8.117188 52.382813 5.089843 5.152344 8.230469 12.230469 8.230469 20.046875 0 9.089844-4.253907 17.1875-10.875 22.414062-11.128907 8.78125-17.660157 22.144532-17.660157 36.320313v8.070313c31.945313 32.035156 76.128907 51.859374 124.941407 51.859374 48.816406 0 93-19.824218 124.945312-51.859374v-8.070313c0-14.175781-6.53125-27.539063-17.660156-36.320313-6.621094-5.226562-10.871094-13.324218-10.871094-22.414062zm0 0" fill="#ffcfc2"/><path d="m100.300781 291.699219c-3.992187 6.925781-6.183593 14.839843-6.183593 23.035156v8.074219c31.945312 32.03125 76.125 51.855468 124.941406 51.855468 5.207031 0 10.359375-.238281 15.453125-.679687-56.628907-4.914063-105.597657-36.574219-134.210938-82.285156zm0 0" fill="#ffaea1"/><g fill="#222223"><path d="m234.511719 234.390625c-5.945313 0-11.371094-2.273437-15.453125-5.996094-4.082032 3.722657-9.507813 5.996094-15.453125 5.996094-12.65625 0-22.953125-10.296875-22.953125-22.953125 0-4.144531 3.359375-7.5 7.5-7.5 4.144531 0 7.5 3.355469 7.5 7.5 0 4.382812 3.566406 7.953125 7.953125 7.953125s7.953125-3.570313 7.953125-7.953125c0-4.144531 3.355468-7.5 7.5-7.5 4.140625 0 7.5 3.355469 7.5 7.5 0 4.382812 3.566406 7.953125 7.953125 7.953125 4.382812 0 7.953125-3.570313 7.953125-7.953125 0-4.144531 3.355468-7.5 7.5-7.5 4.140625 0 7.5 3.355469 7.5 7.5 0 12.65625-10.296875 22.953125-22.953125 22.953125zm0 0"/><path d="m284.667969 220.757812c-4.140625 0-7.5-3.359374-7.5-7.5v-11.699218c0-4.140625 3.359375-7.5 7.5-7.5 4.144531 0 7.5 3.359375 7.5 7.5v11.699218c0 4.140626-3.355469 7.5-7.5 7.5zm0 0"/><path d="m153.445312 220.757812c-4.140624 0-7.5-3.359374-7.5-7.5v-11.699218c0-4.140625 3.359376-7.5 7.5-7.5 4.144532 0 7.5 3.359375 7.5 7.5v11.699218c0 4.140626-3.355468 7.5-7.5 7.5zm0 0"/></g><path d="m290.519531 242.871094h-11.699219c-4.140624 0-7.5-3.355469-7.5-7.5 0-4.140625 3.359376-7.5 7.5-7.5h11.699219c4.140625 0 7.5 3.359375 7.5 7.5 0 4.144531-3.359375 7.5-7.5 7.5zm0 0" fill="#f46262"/><path d="m159.296875 242.871094h-11.699219c-4.144531 0-7.5-3.355469-7.5-7.5 0-4.140625 3.355469-7.5 7.5-7.5h11.699219c4.140625 0 7.5 3.359375 7.5 7.5 0 4.144531-3.359375 7.5-7.5 7.5zm0 0" fill="#f46262"/></svg>